<svg width="50" height="38" viewBox="0 0 50 38" fill="none" xmlns="http://www.w3.org/2000/svg">
<path d="M7.42829 35.7145C4.27238 35.7145 1.71401 32.9963 1.71401 29.6431C1.71401 26.2899 4.27238 23.5717 7.42829 23.5717C10.5842 23.5717 13.1426 26.2899 13.1426 29.6431C13.1426 32.9963 10.5842 35.7145 7.42829 35.7145Z" stroke="white" stroke-width="3.42857"/>
<path d="M41.7134 35.7145C38.5575 35.7145 35.9992 32.9963 35.9992 29.6431C35.9992 26.2899 38.5575 23.5717 41.7134 23.5717C44.8694 23.5717 47.4277 26.2899 47.4277 29.6431C47.4277 32.9963 44.8694 35.7145 41.7134 35.7145Z" stroke="white" stroke-width="3.42857"/>
<path d="M5.74845 8.68455C2.82045 12.4707 1.80102 16.0723 1.71645 17.9763C3.30679 17.2045 5.03552 16.8077 6.78388 16.813C12.3724 16.813 17.3896 20.7618 18.5873 26.0221C18.8753 27.2801 19.017 27.9091 19.3279 28.169C19.6387 28.4289 20.1416 28.4289 21.145 28.4289H27.7233C28.7359 28.4289 29.241 28.4289 29.5519 28.1666C29.865 27.8994 30.0022 27.2753 30.2742 26.0221C31.4079 20.8298 36.0067 16.3151 40.7953 16.6964C41.2776 16.7377 41.5199 16.7571 41.6867 16.7158C41.849 16.677 42.0159 16.5774 42.3496 16.3758C43.3119 15.8003 44.2947 15.2514 45.2387 14.6418C45.8858 14.2228 46.4247 13.6394 46.8069 12.9442C47.1892 12.249 47.4027 11.4637 47.4284 10.659C47.4582 9.72641 46.9553 8.80355 45.9382 9.05612L31.2639 12.7257C30.1599 13.0026 29.609 13.1386 29.1359 13.0463C28.6627 12.954 28.0799 12.5314 26.9187 11.6863C23.9747 9.54912 19.3073 7.52612 14.6559 9.31112C13.3827 9.79926 12.745 10.0446 12.3839 10.0567C12.0182 10.0688 11.4879 9.90369 10.425 9.57584C8.90228 9.09806 7.33481 8.79918 5.75073 8.68455C7.58388 6.3094 10.1713 3.86383 13.7507 1.71454" stroke="white" stroke-width="3.42857" stroke-linecap="round" stroke-linejoin="round"/>
</svg>
